<svg width="11" height="15" viewBox="0 0 11 15" fill="none" xmlns="http://www.w3.org/2000/svg">
<path d="M1.82292 14.3167C1.50347 14.3167 1.23958 14.2195 1.03125 14.025C0.836806 13.8167 0.739584 13.5528 0.739584 13.2334V1.56669C0.739584 1.24725 0.836806 0.990301 1.03125 0.795857C1.23958 0.587524 1.50347 0.483357 1.82292 0.483357H9.48958C9.80903 0.483357 10.066 0.587524 10.2604 0.795857C10.4688 0.990301 10.5729 1.24725 10.5729 1.56669V13.2334C10.5729 13.5528 10.4688 13.8167 10.2604 14.025C10.066 14.2195 9.80903 14.3167 9.48958 14.3167H1.82292ZM1.82292 13.9H9.48958C9.65625 13.9 9.80903 13.8306 9.94792 13.6917C10.0868 13.5528 10.1563 13.4 10.1563 13.2334V1.56669C10.1563 1.40002 10.0868 1.24725 9.94792 1.10836C9.80903 0.969468 9.65625 0.900023 9.48958 0.900023H8.65625V6.44169L7.19792 5.77502L5.73958 6.44169V0.900023H1.82292C1.65625 0.900023 1.50347 0.969468 1.36458 1.10836C1.22569 1.24725 1.15625 1.40002 1.15625 1.56669V13.2334C1.15625 13.4 1.22569 13.5528 1.36458 13.6917C1.50347 13.8306 1.65625 13.9 1.82292 13.9ZM1.15625 13.9C1.15625 13.9 1.15625 13.8306 1.15625 13.6917C1.15625 13.5528 1.15625 13.4 1.15625 13.2334V1.56669C1.15625 1.40002 1.15625 1.24725 1.15625 1.10836C1.15625 0.969468 1.15625 0.900023 1.15625 0.900023C1.15625 0.900023 1.15625 0.969468 1.15625 1.10836C1.15625 1.24725 1.15625 1.40002 1.15625 1.56669V13.2334C1.15625 13.4 1.15625 13.5528 1.15625 13.6917C1.15625 13.8306 1.15625 13.9 1.15625 13.9ZM5.73958 6.44169L7.19792 5.77502L8.65625 6.44169L7.19792 5.77502L5.73958 6.44169Z" fill="black"/>
</svg>
