<svg width="40" height="37" viewBox="0 0 40 37" fill="none" xmlns="http://www.w3.org/2000/svg">
<rect y="0.5" width="40" height="36" rx="18" fill="#FF9423" fill-opacity="0.2"/>
<path d="M27.225 28.35L21.425 22.55L24.05 19.9L29.85 25.7L27.225 28.35ZM12.775 28.35L10.125 25.7L17.35 18.475L15.575 16.7L14.875 17.4L13.95 16.5V18.2L13.075 19.075L9.325 15.325L10.2 14.45H11.9L11 13.525L14.825 9.725C15.1917 9.35833 15.6 9.09167 16.05 8.925C16.5167 8.74167 16.9833 8.65 17.45 8.65C17.9167 8.65 18.3833 8.74167 18.85 8.925C19.3167 9.10833 19.7333 9.375 20.1 9.725L17.65 12.15L18.875 13.375L18.175 14.075L19.975 15.875L22.2 13.65C22.15 13.4833 22.1083 13.3083 22.075 13.125C22.0417 12.925 22.025 12.7333 22.025 12.55C22.025 11.4667 22.4 10.55 23.15 9.8C23.9 9.03333 24.8167 8.65 25.9 8.65C26.2333 8.65 26.55 8.69167 26.85 8.775C27.15 8.84167 27.45 8.96667 27.75 9.15L25.275 11.65L26.8 13.175L29.3 10.675C29.5 10.9583 29.6417 11.2583 29.725 11.575C29.8083 11.8917 29.85 12.2167 29.85 12.55C29.85 13.6333 29.4583 14.55 28.675 15.3C27.9083 16.05 26.9833 16.425 25.9 16.425C25.7167 16.425 25.5333 16.4083 25.35 16.375C25.1833 16.3417 25.0167 16.3 24.85 16.25L12.775 28.35Z" fill="#FF9423"/>
</svg>
