<svg width="11" height="15" viewBox="0 0 11 15" fill="none" xmlns="http://www.w3.org/2000/svg">
<path d="M1.82292 14.5169C1.51736 14.5169 1.26042 14.4127 1.05208 14.2044C0.843751 13.9961 0.739584 13.7391 0.739584 13.4336V6.76689C0.739584 6.46133 0.843751 6.20439 1.05208 5.99605C1.26042 5.78772 1.51736 5.68355 1.82292 5.68355H2.73958V3.68355C2.73958 2.86411 3.01736 2.17661 3.57292 1.62105C4.14236 1.05161 4.83681 0.766886 5.65625 0.766886C6.47569 0.766886 7.16319 1.05161 7.71875 1.62105C8.2882 2.17661 8.57292 2.86411 8.57292 3.68355V5.68355H9.48958C9.79514 5.68355 10.0521 5.78772 10.2604 5.99605C10.4688 6.20439 10.5729 6.46133 10.5729 6.76689V13.4336C10.5729 13.7391 10.4688 13.9961 10.2604 14.2044C10.0521 14.4127 9.79514 14.5169 9.48958 14.5169H1.82292ZM1.82292 14.1002H9.48958C9.68403 14.1002 9.84375 14.0377 9.96875 13.9127C10.0938 13.7877 10.1563 13.628 10.1563 13.4336V6.76689C10.1563 6.57244 10.0938 6.41272 9.96875 6.28772C9.84375 6.16272 9.68403 6.10022 9.48958 6.10022H1.82292C1.62847 6.10022 1.46875 6.16272 1.34375 6.28772C1.21875 6.41272 1.15625 6.57244 1.15625 6.76689V13.4336C1.15625 13.628 1.21875 13.7877 1.34375 13.9127C1.46875 14.0377 1.62847 14.1002 1.82292 14.1002ZM5.65625 11.0586C5.93403 11.0586 6.1632 10.9683 6.34375 10.7877C6.52431 10.6072 6.61458 10.378 6.61458 10.1002C6.61458 9.82244 6.52431 9.59328 6.34375 9.41272C6.1632 9.23216 5.93403 9.14189 5.65625 9.14189C5.37847 9.14189 5.14931 9.23216 4.96875 9.41272C4.78819 9.59328 4.69792 9.82244 4.69792 10.1002C4.69792 10.378 4.78819 10.6072 4.96875 10.7877C5.14931 10.9683 5.37847 11.0586 5.65625 11.0586ZM3.15625 5.68355H8.15625V3.68355C8.15625 2.98911 7.9132 2.39883 7.42708 1.91272C6.94097 1.42661 6.35069 1.18355 5.65625 1.18355C4.96181 1.18355 4.37153 1.42661 3.88542 1.91272C3.39931 2.39883 3.15625 2.98911 3.15625 3.68355V5.68355ZM1.15625 14.1002C1.15625 14.1002 1.15625 14.0377 1.15625 13.9127C1.15625 13.7877 1.15625 13.628 1.15625 13.4336V6.76689C1.15625 6.57244 1.15625 6.41272 1.15625 6.28772C1.15625 6.16272 1.15625 6.10022 1.15625 6.10022C1.15625 6.10022 1.15625 6.16272 1.15625 6.28772C1.15625 6.41272 1.15625 6.57244 1.15625 6.76689V13.4336C1.15625 13.628 1.15625 13.7877 1.15625 13.9127C1.15625 14.0377 1.15625 14.1002 1.15625 14.1002Z" fill="black"/>
</svg>
