<svg width="40" height="37" viewBox="0 0 40 37" fill="none" xmlns="http://www.w3.org/2000/svg">
<rect y="0.5" width="40" height="36" rx="18" fill="#FF9423" fill-opacity="0.2"/>
<path d="M8.225 28.725V26.35H31.775V28.725H8.225ZM12.3 25.35C11.4167 25.35 10.6667 25.05 10.05 24.45C9.45 23.8333 9.15 23.0833 9.15 22.2V11.8C9.15 10.9167 9.45 10.175 10.05 9.575C10.6667 8.95833 11.4167 8.65 12.3 8.65H27.7C28.5833 8.65 29.325 8.95833 29.925 9.575C30.5417 10.175 30.85 10.9167 30.85 11.8V22.2C30.85 23.0833 30.5417 23.8333 29.925 24.45C29.325 25.05 28.5833 25.35 27.7 25.35H12.3ZM12.3 22.2H27.7V11.8H12.3V22.2ZM12.3 22.2V11.8V22.2Z" fill="#FF9423"/>
</svg>
