<svg width="16" height="16" viewBox="0 0 16 16" fill="none" xmlns="http://www.w3.org/2000/svg">
<path d="M5.25195 15.125L3.93945 12.9583L1.46029 12.4167L1.68945 9.875L0.0227866 8L1.68945 6.125L1.46029 3.58333L3.93945 3.04167L5.25195 0.874999L7.56445 1.85417L9.87695 0.874999L11.1895 3.04167L13.6686 3.58333L13.4395 6.125L15.1061 8L13.4395 9.875L13.6686 12.4167L11.1895 12.9583L9.87695 15.125L7.56445 14.1458L5.25195 15.125ZM5.39779 14.6042L7.56445 13.7292L9.68945 14.6042L10.9395 12.5833L13.2311 12.1042L13.0228 9.75L14.5645 8L13.0228 6.29167L13.2311 3.9375L10.9395 3.41667L9.73112 1.39583L7.56445 2.27083L5.43945 1.39583L4.18945 3.41667L1.89779 3.91667L2.10612 6.29167L0.564453 8L2.12695 9.75L1.89779 12.0833L4.18945 12.6042L5.39779 14.6042ZM6.50195 10.25L10.7103 6.0625L10.3978 5.79167L6.50195 9.66667L4.73112 7.875L4.41862 8.1875L6.50195 10.25Z" fill="#FF9423"/>
</svg>
